<svg xmlns="http://www.w3.org/2000/svg" viewBox="0 0 273 183"><g fill="none"><circle cx="1.5" cy="1.5" r="1.5" fill="#FFF"/><circle cx="31.5" cy="1.5" r="1.5" fill="#FFF"/><circle cx="61.5" cy="1.5" r="1.5" fill="#FFF"/><circle cx="91.5" cy="1.5" r="1.5" fill="#FFF"/><circle cx="121.5" cy="1.5" r="1.5" fill="#6B3FBD"/><circle cx="151.5" cy="1.5" r="1.5" fill="#6B3FBD"/><circle cx="181.5" cy="1.5" r="1.5" fill="#6B3FBD"/><circle cx="211.5" cy="1.5" r="1.5" fill="#6B3FBD"/><circle cx="1.5" cy="31.5" r="1.5" fill="#FFF"/><circle cx="31.5" cy="31.5" r="1.5" fill="#FFF"/><circle cx="61.5" cy="31.5" r="1.5" fill="#FFF"/><circle cx="91.5" cy="31.5" r="1.5" fill="#FFF"/><circle cx="121.5" cy="31.5" r="1.5" fill="#6B3FBD"/><circle cx="151.5" cy="31.5" r="1.5" fill="#6B3FBD"/><circle cx="181.5" cy="31.5" r="1.5" fill="#6B3FBD"/><circle cx="211.5" cy="31.5" r="1.5" fill="#6B3FBD"/><circle cx="1.5" cy="61.5" r="1.5" fill="#FFF"/><circle cx="31.5" cy="61.5" r="1.5" fill="#FFF"/><circle cx="61.5" cy="61.5" r="1.5" fill="#FFF"/><circle cx="91.5" cy="61.5" r="1.5" fill="#FFF"/><circle cx="121.5" cy="61.5" r="1.5" fill="#6B3FBD"/><circle cx="151.5" cy="61.5" r="1.5" fill="#6B3FBD"/><circle cx="181.5" cy="61.5" r="1.5" fill="#6B3FBD"/><circle cx="211.5" cy="61.5" r="1.5" fill="#6B3FBD"/><circle cx="1.5" cy="91.5" r="1.5" fill="#FFF"/><circle cx="31.5" cy="91.5" r="1.5" fill="#FFF"/><circle cx="61.5" cy="91.5" r="1.5" fill="#FFF"/><circle cx="91.5" cy="91.5" r="1.5" fill="#FFF"/><circle cx="121.5" cy="91.5" r="1.5" fill="#6B3FBD"/><circle cx="151.5" cy="91.5" r="1.5" fill="#6B3FBD"/><circle cx="181.5" cy="91.5" r="1.5" fill="#6B3FBD"/><circle cx="211.5" cy="91.5" r="1.5" fill="#6B3FBD"/><circle cx="1.5" cy="121.5" r="1.5" fill="#6B3FBD"/><circle cx="31.5" cy="121.5" r="1.5" fill="#6B3FBD"/><circle cx="61.5" cy="121.5" r="1.5" fill="#6B3FBD"/><circle cx="91.5" cy="121.5" r="1.5" fill="#6B3FBD"/><circle cx="121.5" cy="121.5" r="1.5" fill="#6B3FBD"/><circle cx="151.5" cy="121.5" r="1.5" fill="#6B3FBD"/><circle cx="181.5" cy="121.5" r="1.5" fill="#6B3FBD"/><circle cx="211.5" cy="121.5" r="1.5" fill="#6B3FBD"/><circle cx="1.5" cy="151.5" r="1.5" fill="#6B3FBD"/><circle cx="31.5" cy="151.5" r="1.5" fill="#6B3FBD"/><circle cx="61.5" cy="151.5" r="1.5" fill="#6B3FBD"/><circle cx="91.5" cy="151.5" r="1.5" fill="#6B3FBD"/><circle cx="121.5" cy="151.5" r="1.5" fill="#6B3FBD"/><circle cx="151.5" cy="151.5" r="1.5" fill="#6B3FBD"/><circle cx="181.5" cy="151.5" r="1.5" fill="#6B3FBD"/><circle cx="211.5" cy="151.5" r="1.5" fill="#6B3FBD"/><circle cx="1.5" cy="181.5" r="1.5" fill="#6B3FBD"/><circle cx="31.5" cy="181.5" r="1.5" fill="#6B3FBD"/><circle cx="61.5" cy="181.5" r="1.5" fill="#6B3FBD"/><circle cx="91.5" cy="181.5" r="1.5" fill="#6B3FBD"/><circle cx="121.5" cy="181.5" r="1.5" fill="#6B3FBD"/><circle cx="151.5" cy="181.5" r="1.5" fill="#6B3FBD"/><circle cx="181.5" cy="181.5" r="1.5" fill="#6B3FBD"/><circle cx="211.5" cy="181.5" r="1.5" fill="#6B3FBD"/><circle cx="241.5" cy="1.5" r="1.5" fill="#6B3FBD"/><circle cx="241.5" cy="31.5" r="1.5" fill="#6B3FBD"/><circle cx="241.5" cy="61.5" r="1.5" fill="#6B3FBD"/><circle cx="241.5" cy="91.5" r="1.5" fill="#6B3FBD"/><circle cx="241.5" cy="121.5" r="1.5" fill="#6B3FBD"/><circle cx="241.5" cy="151.5" r="1.5" fill="#6B3FBD"/><circle cx="241.5" cy="181.5" r="1.5" fill="#6B3FBD"/><circle cx="271.5" cy="1.5" r="1.5" fill="#6B3FBD"/><circle cx="271.5" cy="31.5" r="1.5" fill="#6B3FBD"/><circle cx="271.5" cy="61.5" r="1.5" fill="#6B3FBD"/><circle cx="271.5" cy="91.5" r="1.5" fill="#6B3FBD"/><circle cx="271.5" cy="121.5" r="1.5" fill="#6B3FBD"/><circle cx="271.5" cy="151.5" r="1.5" fill="#6B3FBD"/><circle cx="271.5" cy="181.5" r="1.5" fill="#6B3FBD"/></g></svg>